<svg xmlns="http://www.w3.org/2000/svg" fill="none" viewBox="0 0 350 350"><path fill="#000" d="M248 29H102a73 73 0 0 0-73 73v146a73 73 0 0 0 73 73h146a73 73 0 0 0 73-73V102a73 73 0 0 0-73-73"/><g filter="url(#a)"><path fill="#fff" fill-rule="evenodd" d="M186.7 243.9c-13.2 0-26.1-4.8-33.6-14.9l-2.6 12-48.5 25.3 5.2-25.3 35.3-157.2h43.3l-12.5 55.4c10-10.9 19.5-14.9 31.5-14.9 25.9 0 43.2 16.8 43.2 47.4 0 31.6-20 72.2-61.3 72.2m16.6-63.2c0 14.6-10.5 25.7-24.2 25.7a26 26 0 0 1-19.3-7.8l6.8-29q7.5-7.7 17.5-7.8c10.3 0 19.2 7.5 19.2 18.9" clip-rule="evenodd"/></g><defs><filter id="a" width="146" height="182.5" x="102" y="83.8" color-interpolation-filters="sRGB" filterUnits="userSpaceOnUse"><feFlood flood-opacity="0" result="BackgroundImageFix"/><feBlend in="SourceGraphic" in2="BackgroundImageFix" result="shape"/><feColorMatrix in="SourceAlpha" result="hardAlpha" values="0 0 0 0 0 0 0 0 0 0 0 0 0 0 0 0 0 0 127 0"/><feOffset/><feGaussianBlur/><feComposite in2="hardAlpha" k2="-1" k3="1" operator="arithmetic"/><feColorMatrix values="0 0 0 0 1 0 0 0 0 1 0 0 0 0 1 0 0 0 0.95 0"/><feBlend in2="shape" result="effect1_innerShadow_473_348"/></filter></defs></svg>
