<svg xmlns="http://www.w3.org/2000/svg" fill="none" viewBox="0 0 350 350">
  <path fill="#d97757" d="m103.9 213.6 46-25.8.8-2.3-.8-1.2h-2.2l-7.7-.5-26.3-.7-22.8-1-22.1-1.1-5.6-1.2-5.2-6.9.5-3.4 4.7-3.1 6.7.5 14.8 1 22.2 1.6 16.2 1 23.8 2.4h3.8l.6-1.5-1.3-1-1-1-23-15.5-25-16.4-13-9.5-7-4.8-3.6-4.5-1.5-9.8 6.4-7 8.6.5 2.2.6 8.7 6.7 18.6 14.4 24.3 17.8 3.5 3 1.5-1 .1-.7-1.6-2.7-13.2-23.8-14-24.3-6.3-10-1.7-6.1a29 29 0 0 1-1-7.1l7.3-10 4-1.2 9.7 1.3 4.1 3.5 6 13.8 9.8 21.8 15.2 29.5 4.4 8.8 2.4 8.1.9 2.5h1.5v-1.4l1.3-16.7 2.3-20.4 2.2-26.3.8-7.4 3.7-8.9 7.3-4.8 5.6 2.7 4.7 6.7-.6 4.3-2.8 18.1-5.5 28.3-3.5 19h2l2.4-2.4 9.6-12.7 16.1-20.2 7.1-8 8.3-8.8 5.4-4.2h10l7.4 11-3.3 11.4-10.3 13.1-8.6 11.2-12.4 16.5-7.7 13.3.8 1 1.8-.1 27.8-6 15-2.6 18-3.1 8.1 3.8 1 3.8-3.3 7.9-19.2 4.7-22.5 4.5-33.5 8-.4.3.5.5 15 1.5 6.5.3h15.8l29.5 2.2 7.7 5.1 4.6 6.2-.8 4.8-11.8 6-16-3.8-37.3-8.9-12.8-3.2h-1.8v1l10.7 10.5 19.5 17.7 24.5 22.7 1.2 5.6-3.1 4.5-3.3-.5-21.5-16.2-8.3-7.3-18.8-15.8H211v1.7l4.4 6.3 22.8 34.4 1.2 10.5-1.7 3.4-5.9 2-6.5-1.1-13.4-18.8-13.8-21.1-11.1-19-1.4.8-6.6 70.8-3 3.6-7.1 2.7-6-4.5-3.1-7.3 3.1-14.4 3.8-18.7 3.1-15 2.8-18.5 1.6-6.2v-.4l-1.4.2-14 19.2-21.3 28.7-16.8 18-4 1.6-7-3.6.6-6.5 4-5.7 23.2-29.6 14-18.4 9.1-10.6v-1.5h-.6l-61.8 40.1-11 1.5-4.8-4.5.6-7.3 2.3-2.3 18.5-12.8z"/>
</svg>
