<svg xmlns="http://www.w3.org/2000/svg" fill="none" viewBox="0 0 350 350">
  <path fill="#18181b" d="M310.7 176.5 293.6 142v-19.8c0-33-26.4-59.6-59-59.6h-29.3A33 33 0 0 0 175.7 15a33 33 0 0 0-29.6 47.6h-29.3c-32.6 0-59 26.6-59 59.6V142l-17.5 34.5a12 12 0 0 0 0 11l17.5 34v19.9c0 33 26.4 59.6 59 59.6h117.8c32.6 0 59-26.7 59-59.6v-19.9l17.1-34.1c1.7-3.4 1.7-7.4 0-10.9m-153 28.2c0 15-12 27-26.8 27a27 27 0 0 1-27-27v-48.2a27 27 0 1 1 53.8 0zm86.8 0a27 27 0 1 1-53.8 0v-48.2a27 27 0 0 1 26.9-27.1 27 27 0 0 1 26.9 27z"/>
</svg>
