<svg xmlns="http://www.w3.org/2000/svg" fill="none" viewBox="0 0 350 350">
  <path fill="#24292f" d="M208.8 205c7.4 0 13.3 6 13.3 13.5v26.7a13.4 13.4 0 0 1-26.7 0v-26.7c0-7.4 6-13.4 13.4-13.4m-53.6 13.4a13.4 13.4 0 0 0-26.7 0v26.7a13.4 13.4 0 0 0 26.7 0z"/>
  <path fill="#24292f" fill-rule="evenodd" d="M334.6 241.8c-11.5 20-78.3 67.2-159.4 67.2s-148-47.2-159.5-67.2a10 10 0 0 1-1-4.8v-35.6q-.1-2.3.7-4.3c5-12.5 18-30.7 34.8-35.6 2.3-5.7 5.6-14 8.6-20.2q-.7-7.2-.6-14.6c0-17.8 3.7-33.4 15-45A56 56 0 0 1 93 69c18.7-15.2 45.4-28 81.9-28s63.7 12.8 82.5 28A56 56 0 0 1 277 81.7c11.3 11.6 15.1 27.2 15.1 45q0 7.5-.7 14.6c3.1 6.1 6.4 14.5 8.6 20.2 16.9 5 29.9 23 34.9 35.6q.8 2 .8 4.3V237q0 2.6-1.2 4.8M186.1 122.4q-.9-6.6-.9-12v-.2c0-10.3 2.3-17 5.9-21.1 4.5-5.2 14-9.2 33.8-7 20.2 2 31.4 7 37.8 13.6 6.2 6.3 9.5 15.8 9.5 31 0 16.2-2.4 25.8-7.5 31.6-4.9 5.6-14.5 10-35.6 10-16.1 0-25.4-5.2-31.3-12.5a66 66 0 0 1-11.7-33.4m-21.8 0q.8-6.6.9-12v-.2c0-10.3-2.3-17-6-21.1-4.5-5.2-13.9-9.2-33.8-7-20.1 2-31.4 7-37.8 13.6-6.1 6.3-9.4 15.8-9.4 31 0 16.2 2.3 25.8 7.5 31.6 4.9 5.6 14.5 10 35.5 10 16.2 0 25.5-5.2 31.4-12.5a67 67 0 0 0 11.7-33.4m13.2 39.3h-4.6q-2.1 3.5-4.8 6.8c-10.3 12.6-25.6 20-46.9 20-23 0-40-4.9-50.6-17l-1.1-1.3-1.3 1.4v88c19.2 10.5 60.4 29.2 107 29.2s87.8-18.7 107-29.2v-88l-1.3-1.4-1.2 1.4c-10.6 12-27.5 16.8-50.6 16.8-21.2 0-36.6-7.3-46.9-20a58 58 0 0 1-4.7-6.7" clip-rule="evenodd"/>
</svg>
