<svg xmlns="http://www.w3.org/2000/svg" fill="none" viewBox="0 0 350 350">
  <path fill="#24292f" d="M205.8 202.6c6.8 0 12.3 5.5 12.3 12.3v24.6a12.3 12.3 0 0 1-24.6 0v-24.6c0-6.8 5.5-12.3 12.3-12.3M156.7 215a12.3 12.3 0 1 0-24.6 0v24.5a12.3 12.3 0 0 0 24.6 0z"/>
  <path fill="#24292f" fill-rule="evenodd" d="M321.3 236.3C310.7 254.7 249.4 298 175 298S39.2 254.7 28.7 236.3q-1.1-2-1-4.4v-32.6q0-2 .7-4c4.5-11.5 16.5-28.1 32-32.6 2-5.3 5-13 7.8-18.6q-.6-6.6-.6-13.4c0-16.3 3.5-30.6 13.9-41.3q7.4-7.4 18-11.7A116 116 0 0 1 174.8 52a118 118 0 0 1 75.7 25.7 52 52 0 0 1 18 11.7c10.5 10.7 14 25 14 41.3q0 6.9-.7 13.4c2.9 5.7 5.9 13.3 8 18.6 15.4 4.5 27.4 21.1 32 32.6q.6 2 .6 4v32.6q.1 2.4-1 4.4M185 126.8q-.8-6-.8-11v-.2c0-9.5 2-15.6 5.4-19.4 4.2-4.8 12.8-8.5 31-6.5 18.5 2 28.9 6.6 34.7 12.6 5.7 5.8 8.7 14.5 8.7 28.4 0 15-2.2 23.7-6.9 29-4.5 5.1-13.3 9.2-32.6 9.2-14.8 0-23.3-4.8-28.8-11.5a61 61 0 0 1-10.7-30.6m-20 0q.8-6 .8-11v-.2c0-9.5-2.1-15.6-5.4-19.4-4.2-4.8-12.8-8.5-31-6.5-18.6 2-28.9 6.6-34.7 12.6C89 108 86 116.8 86 130.7c0 15 2.1 23.7 6.9 29 4.4 5.1 13.3 9.2 32.6 9.2 14.8 0 23.3-4.8 28.7-11.5a61 61 0 0 0 10.8-30.6m12.1 36h-4.2a53 53 0 0 1-4.4 6.2c-9.4 11.7-23.5 18.3-43 18.3-21.2 0-36.7-4.4-46.5-15.4l-1-1.3-1.2 1.3v80.8c17.6 9.6 55.4 26.8 98.2 26.8s80.6-17.2 98.2-26.8V172l-1.2-1.3-1 1.3c-9.8 11-25.3 15.4-46.5 15.4-19.5 0-33.6-6.6-43-18.3q-2.5-3-4.4-6.2" clip-rule="evenodd"/>
</svg>
