<svg xmlns="http://www.w3.org/2000/svg" fill="none" viewBox="0 0 350 350"><mask id="b" width="292" height="297" x="29" y="25" maskUnits="userSpaceOnUse" style="mask-type:alpha"><path fill="url(#a)" fill-rule="evenodd" d="M116.6 25a87.6 87.6 0 0 1 87.6 87.7V146h29.2a87.6 87.6 0 0 1 0 175.3H29V112.7A87.6 87.6 0 0 1 116.6 25" clip-rule="evenodd"/></mask><g mask="url(#b)"><g filter="url(#c)"><path fill="#4b73ff" d="M157.1 380.4A197.4 197.4 0 0 0 354.8 183C354.8 74.2 266.3-14 157-14A197.4 197.4 0 0 0-40.6 183.1c0 109 88.5 197.3 197.7 197.3"/></g><g filter="url(#d)"><path fill="#ff66f4" d="M178.8 272.1C318.6 272.1 432 183.8 432 75c0-109-113.4-197.2-253.2-197.2S-74.3-34-74.3 74.9c0 109 113.3 197.2 253.1 197.2"/></g><g filter="url(#e)"><path fill="#ff0105" d="M220 211c109.3 0 197.7-77.5 197.7-173.2s-88.4-173.2-197.6-173.2S22.4-58 22.4 37.8 111 211 220.1 211"/></g><g filter="url(#f)"><path fill="#fe7b02" d="M182.3 193.5c65.7 0 118.9-53.1 118.9-118.6S248-43.7 182.3-43.7A118.7 118.7 0 0 0 63.5 74.9c0 65.5 53.2 118.6 118.8 118.6"/></g></g><defs><filter id="c" width="468.1" height="467.2" x="-76.9" y="-50.5" color-interpolation-filters="sRGB" filterUnits="userSpaceOnUse"><feFlood flood-opacity="0" result="BackgroundImageFix"/><feBlend in="SourceGraphic" in2="BackgroundImageFix" result="shape"/><feGaussianBlur result="effect1_foregroundBlur_473_373" stdDeviation="18.2"/></filter><filter id="d" width="579.1" height="467.2" x="-110.7" y="-158.7" color-interpolation-filters="sRGB" filterUnits="userSpaceOnUse"><feFlood flood-opacity="0" result="BackgroundImageFix"/><feBlend in="SourceGraphic" in2="BackgroundImageFix" result="shape"/><feGaussianBlur result="effect1_foregroundBlur_473_373" stdDeviation="18.2"/></filter><filter id="e" width="468.1" height="419.2" x="-14" y="-171.8" color-interpolation-filters="sRGB" filterUnits="userSpaceOnUse"><feFlood flood-opacity="0" result="BackgroundImageFix"/><feBlend in="SourceGraphic" in2="BackgroundImageFix" result="shape"/><feGaussianBlur result="effect1_foregroundBlur_473_373" stdDeviation="18.2"/></filter><filter id="f" width="310.5" height="310" x="27.1" y="-80.1" color-interpolation-filters="sRGB" filterUnits="userSpaceOnUse"><feFlood flood-opacity="0" result="BackgroundImageFix"/><feBlend in="SourceGraphic" in2="BackgroundImageFix" result="shape"/><feGaussianBlur result="effect1_foregroundBlur_473_373" stdDeviation="18.2"/></filter><linearGradient id="a" x1="127.3" x2="215.9" y1="77.1" y2="321.3" gradientUnits="userSpaceOnUse"><stop offset="0" stop-color="#ff8e63"/><stop offset=".6" stop-color="#ff7eb0"/><stop offset=".9" stop-color="#4b73ff"/></linearGradient></defs></svg>
