<svg xmlns="http://www.w3.org/2000/svg" fill="none" viewBox="0 0 350 350">
  <path fill="#084ccf" fill-rule="evenodd" d="M80.5 87.3c0-3.8 3-6.8 6.8-6.8H260l-23.7 23.6H117.6c-7.4 0-13.5 6-13.5 13.5V202h13.5v-84.4h105.2l-23.6 23.7h-47.8c-5.6 0-10.2 4.5-10.2 10v17h13.6v-13.6h30.9l-111 111A10.1 10.1 0 0 0 82 283h180.9c11.1 0 20.2-9 20.2-20.2V114.3h-13.5v148.5c0 3.7-3 6.7-6.7 6.7H90l23.7-23.6h118.7c7.4 0 13.5-6 13.5-13.5V148h-13.5v84.4H127.2l23.2-23.2h48.2c5.6 0 10.2-4.6 10.2-10.2v-17.2h-13.6v13.9H164L275.3 84.3A10.1 10.1 0 0 0 268 67H87.2C76.2 67 67 76 67 87.3v148.5h13.5z" clip-rule="evenodd"/>
</svg>
